# xmcd
#
# Track frame offsets:
#	150
#	14343
#	31106
#	49246
#	62333
#	77671
#	96059
#	113937
#	127590
#
# Disc length: 2053 seconds
# Revision: 1
# Processed by: cddbd v1.5.2PL0 Copyright (c) Steve Scherf et al.
# Submitted via: dBpowerAMP V12.0
#
DISCID=60080309
DTITLE=Garth Brooks - Triple Live Disc 3
DYEAR=2018
DGENRE=Country
TTITLE0=Callin' Baton Rouge
TTITLE1=The River
TTITLE2=The Beaches Of Cheyenne
TTITLE3=The Fireman
TTITLE4=More Than A Memory
TTITLE5=Two Piña Coladas
TTITLE6=Whiskey To Wine ( The Duet With Trisha Yearwood)
TTITLE7=We Shall Be Free
TTITLE8=The Dance
EXTD=
EXTT0=
EXTT1=
EXTT2=
EXTT3=
EXTT4=
EXTT5=
EXTT6=
EXTT7=
EXTT8=
PLAYORDER=
